<svg width="281" height="214" viewBox="0 0 281 214" fill="none" xmlns="http://www.w3.org/2000/svg">
<g filter="url(#filter0_d_190_178)">
<rect x="55.6118" y="32.1248" width="197.457" height="114.317" transform="rotate(11.8503 55.6118 32.1248)" fill="#FFFDD0"/>
</g>
<path d="M244.575 130.06L194.394 53.2292L194.309 51.3953L195.954 52.2107L195.868 50.3768L197.513 51.1923L197.428 49.3583L199.073 50.1738L198.987 48.3399L200.632 49.1553L200.547 47.3214L202.191 48.1368L202.106 46.3029L203.751 47.1184L203.665 45.2844L205.31 46.0999L205.225 44.266L206.87 45.0814L206.784 43.2475L208.429 44.0629L208.343 42.229L209.988 43.0445L209.903 41.2106L211.548 42.026L211.462 40.1921L213.107 41.0075L213.022 39.1736L214.666 39.989L264.847 116.82L265.614 117.995L265.7 119.829L264.055 119.014L264.141 120.848L262.496 120.032L262.581 121.866L260.936 121.051L261.022 122.884L259.377 122.069L259.462 123.903L257.818 123.088L257.903 124.921L256.258 124.106L256.344 125.94L254.699 125.124L254.784 126.958L253.139 126.143L253.225 127.977L251.58 127.161L251.666 128.995L250.021 128.18L250.106 130.014L248.461 129.198L248.547 131.032L246.902 130.217L246.987 132.051L245.343 131.235L244.575 130.06Z" fill="#F0F0F0" fill-opacity="0.38"/>
<path d="M60.9847 172.984L13.9285 100.937L13.8969 99.1856L15.4879 99.9185L15.4563 98.1671L17.0473 98.9001L17.0156 97.1486L18.6066 97.8816L18.575 96.1302L20.166 96.8631L20.1344 95.1117L21.7254 95.8446L21.6938 94.0932L23.2848 94.8262L23.2532 93.0747L24.8442 93.8077L24.8125 92.0563L26.4035 92.7892L26.3719 91.0378L27.9629 91.7707L27.9313 90.0193L29.5223 90.7523L29.4907 89.0008L31.0817 89.7338L31.0501 87.9824L32.6411 88.7153L32.6094 86.9639L34.2005 87.6968L81.2567 159.744L81.9765 160.846L82.0081 162.598L80.4171 161.865L80.4487 163.616L78.8577 162.883L78.8893 164.635L77.2983 163.902L77.3299 165.653L75.7389 164.92L75.7706 166.672L74.1796 165.939L74.2112 167.69L72.6202 166.957L72.6518 168.709L71.0608 167.976L71.0924 169.727L69.5014 168.994L69.533 170.745L67.942 170.013L67.9737 171.764L66.3827 171.031L66.4143 172.782L64.8233 172.049L64.8549 173.801L63.2639 173.068L63.2955 174.819L61.7045 174.086L60.9847 172.984Z" fill="#F0F0F0" fill-opacity="0.38"/>
<path opacity="0.76" d="M63.2693 91.2317C63.8625 91.326 64.3655 91.1936 64.7783 90.8346C65.1911 90.4756 65.4552 89.9323 65.5708 89.2047C65.7113 88.3205 65.6125 87.5704 65.2743 86.9543C64.9379 86.3271 64.3555 85.9477 63.5273 85.8161C62.9788 85.729 62.4373 85.815 61.9026 86.0744L60.3687 95.7283L63.1887 96.8304L62.4613 97.8337L55.4769 96.724L55.6263 95.7838L57.4019 94.7921L58.8877 85.4404L57.1148 84.5735L57.8423 83.5702L60.6293 84.013C61.6255 84.1713 62.6102 84.2933 63.5834 84.3791C64.3069 84.4482 64.8365 84.5094 65.1723 84.5627C66.0454 84.7014 66.7901 84.9976 67.4066 85.4513C68.0248 85.8938 68.4715 86.441 68.7466 87.0929C69.0217 87.7448 69.1014 88.4346 68.9858 89.1621C68.8578 89.968 68.4299 90.6746 67.7023 91.2819C66.9746 91.8893 66.1087 92.3197 65.1045 92.5733C64.1003 92.8269 63.154 92.8601 62.2657 92.6731L61.5989 92.1024L62.3264 91.0991L63.2666 91.2485L63.2693 91.2317ZM75.3059 90.4245C76.1341 90.5561 76.8417 90.8693 77.4287 91.3642C78.0174 91.8479 78.4375 92.454 78.689 93.1825C78.9517 93.9128 79.0181 94.6864 78.8882 95.5035C78.7478 96.3878 78.3307 97.1707 77.6372 97.8523C76.9454 98.5227 76.1321 99.0189 75.1974 99.3409C74.2756 99.6534 73.4173 99.7466 72.6226 99.6203C71.8055 99.4905 71.097 99.1828 70.4971 98.6974C69.9102 98.2025 69.4854 97.5899 69.2227 96.8596C68.9712 96.1311 68.9104 95.3584 69.0402 94.5413C69.1807 93.657 69.5969 92.8797 70.2886 92.2093C70.9822 91.5277 71.7899 91.0306 72.7117 90.718C73.6464 90.396 74.5112 90.2982 75.3059 90.4245ZM74.0226 92.2173C73.5525 92.1426 73.1641 92.276 72.8574 92.6174C72.5637 92.9494 72.3581 93.4848 72.2407 94.2235C72.0914 95.1638 72.1572 95.9775 72.4381 96.6648C72.7209 97.3408 73.2092 97.734 73.9032 97.8443C74.3621 97.9172 74.7393 97.782 75.0348 97.4388C75.3433 97.0862 75.5562 96.5405 75.6736 95.8018C75.823 94.8616 75.7554 94.059 75.4709 93.3941C75.1882 92.7181 74.7054 92.3258 74.0226 92.2173ZM86.4494 94.6393C86.0465 94.5753 85.6151 94.6903 85.1552 94.9845L84.435 99.5176L86.8803 100.595L86.1696 101.601L79.8064 100.59L79.9558 99.6494L81.6502 98.6276L82.2557 94.8164L80.9108 93.6388L81.0602 92.6986L84.7872 91.776L85.129 93.741L86.9076 92.4055C87.1569 92.3533 87.4383 92.3521 87.7517 92.4019C88.3337 92.4944 88.8104 92.7078 89.1819 93.0423C89.5645 93.3785 89.8025 93.795 89.8957 94.2918L87.9638 96.0504L86.906 95.8823C86.9589 95.4776 86.9483 95.1833 86.8742 94.9994C86.8019 94.8043 86.6594 94.6899 86.4468 94.6561L86.4494 94.6393ZM93.1299 93.2564C93.6112 93.3329 93.9781 93.5519 94.2305 93.9133C94.4941 94.2765 94.5894 94.6875 94.5165 95.1464C94.4649 95.471 94.305 95.7555 94.0367 95.9997C93.7684 96.244 93.453 96.4234 93.0905 96.5379C92.728 96.6524 92.3901 96.6848 92.0767 96.635C91.6066 96.5603 91.2389 96.347 90.9735 95.995C90.7211 95.6336 90.6313 95.2234 90.7042 94.7645C90.7558 94.4399 90.9157 94.1555 91.1841 93.9112C91.4542 93.6558 91.7648 93.4699 92.1161 93.3536C92.4786 93.239 92.8165 93.2066 93.1299 93.2564ZM92.1882 99.1831C92.6695 99.2596 93.0364 99.4785 93.2888 99.8399C93.5524 100.203 93.6478 100.614 93.5749 101.073C93.5233 101.398 93.3633 101.682 93.095 101.926C92.8267 102.171 92.5113 102.35 92.1488 102.465C91.7864 102.579 91.4484 102.611 91.135 102.562C90.6649 102.487 90.2972 102.274 90.0318 101.922C89.7794 101.56 89.6896 101.15 89.7626 100.691C89.8141 100.367 89.9741 100.082 90.2424 99.8379C90.5125 99.5824 90.8232 99.3965 91.1744 99.2802C91.5369 99.1657 91.8748 99.1333 92.1882 99.1831ZM107.122 102.089C107.175 101.754 107.091 101.413 106.871 101.068C106.661 100.725 106.376 100.393 106.013 100.072C105.651 99.7501 105.164 99.3513 104.551 98.8752C103.796 98.2847 103.183 97.7742 102.712 97.3436C102.252 96.9148 101.879 96.4425 101.594 95.9267C101.309 95.4109 101.21 94.8787 101.297 94.3303C101.386 93.7706 101.738 93.2127 102.355 92.6565C102.973 92.0891 103.686 91.6459 104.494 91.3267C105.315 90.9982 106.039 90.8837 106.666 90.9833C107.416 91.1024 108.281 91.326 109.262 91.6539C110.242 91.9819 110.953 92.2783 111.392 92.5433L110.808 96.2202L109.23 95.9694C108.904 94.9881 108.496 94.2003 108.005 93.6059C107.525 93.0133 106.972 92.6672 106.345 92.5676C105.897 92.4965 105.522 92.5859 105.218 92.8361C104.916 93.075 104.73 93.4127 104.661 93.8492C104.604 94.2074 104.684 94.5701 104.901 94.9374C105.131 95.2953 105.427 95.6405 105.787 95.9732C106.16 96.2964 106.663 96.7034 107.297 97.1943C108.043 97.7718 108.641 98.2685 109.091 98.6843C109.542 99.1001 109.905 99.5594 110.181 100.062C110.456 100.565 110.552 101.085 110.466 101.622C110.377 102.182 110.007 102.743 109.355 103.305C108.706 103.856 107.948 104.292 107.082 104.613C106.229 104.925 105.478 105.03 104.829 104.927C104.045 104.802 103.119 104.569 102.048 104.227C100.989 103.886 100.234 103.583 99.7832 103.316L100.367 99.6392L101.946 99.8899C102.294 100.875 102.753 101.671 103.322 102.278C103.891 102.884 104.506 103.24 105.166 103.345C105.681 103.427 106.118 103.347 106.478 103.106C106.839 102.854 107.054 102.515 107.122 102.089ZM121.879 107.274L118.051 106.666L118.281 105.222L116.23 106.428C115.913 106.47 115.565 106.46 115.184 106.4C114.323 106.263 113.676 105.925 113.245 105.386C112.816 104.836 112.665 104.164 112.791 103.369L113.365 99.7592L112.007 98.6655L112.156 97.7253L115.679 96.7875L116.737 96.9556L115.846 102.563C115.76 103.1 115.779 103.488 115.902 103.725C116.025 103.963 116.288 104.114 116.691 104.178C117.273 104.27 117.874 104.171 118.494 103.879L119.006 100.656L117.648 99.5618L117.797 98.6216L121.32 97.6838L122.378 97.8519L121.159 105.525L122.59 106.268L121.879 107.274ZM128.709 108.359L123.403 107.516L123.553 106.576L125.247 105.554L125.866 101.659L124.529 100.431L124.678 99.4911L128.182 98.6708L129.24 98.8389L128.005 106.612L129.436 107.356L128.709 108.359ZM128.599 93.5559C129.08 93.6324 129.447 93.8513 129.7 94.2127C129.965 94.5647 130.061 94.9702 129.988 95.4291C129.937 95.7537 129.777 96.0381 129.509 96.2824C129.24 96.5266 128.925 96.706 128.562 96.8206C128.2 96.9351 127.862 96.9675 127.549 96.9177C127.079 96.843 126.711 96.6296 126.445 96.2776C126.193 95.9162 126.103 95.5061 126.176 95.0471C126.228 94.7225 126.388 94.4381 126.656 94.1939C126.924 93.9496 127.234 93.7693 127.585 93.653C127.948 93.5385 128.286 93.5061 128.599 93.5559ZM135.909 109.538C135.515 109.567 135.054 109.54 134.528 109.456C133.454 109.285 132.703 108.919 132.275 108.358C131.861 107.787 131.735 106.993 131.897 105.974L132.63 101.357L130.817 101.069L130.959 100.179L135.192 96.824L136.25 96.992L135.661 100.702L138.683 101.183L138.507 102.291L135.485 101.811L134.77 106.31C134.647 107.082 135.022 107.538 135.895 107.677C136.119 107.712 136.343 107.713 136.566 107.68C136.802 107.637 137.103 107.553 137.467 107.427L137.818 108.464L135.909 109.538ZM146.413 104.442C147.006 104.536 147.509 104.404 147.922 104.045C148.335 103.686 148.599 103.143 148.714 102.415C148.855 101.531 148.756 100.781 148.418 100.165C148.081 99.5374 147.499 99.158 146.671 99.0264C146.122 98.9393 145.581 99.0254 145.046 99.2847L143.512 108.939L146.332 110.041L145.605 111.044L138.62 109.934L138.77 108.994L140.545 108.002L142.031 98.6507L140.258 97.7838L140.986 96.7805L143.773 97.2233C144.769 97.3816 145.754 97.5036 146.727 97.5894C147.451 97.6585 147.98 97.7197 148.316 97.773C149.189 97.9117 149.934 98.2079 150.55 98.6616C151.168 99.1041 151.615 99.6513 151.89 100.303C152.165 100.955 152.245 101.645 152.129 102.372C152.001 103.178 151.574 103.885 150.846 104.492C150.118 105.1 149.252 105.53 148.248 105.784C147.244 106.037 146.298 106.07 145.409 105.883L144.743 105.313L145.47 104.309L146.41 104.459L146.413 104.442ZM162.115 113.667L158.287 113.059L158.516 111.615L156.465 112.821C156.149 112.863 155.8 112.853 155.42 112.793C154.558 112.656 153.912 112.318 153.481 111.779C153.052 111.229 152.901 110.556 153.027 109.762L153.6 106.152L152.242 105.058L152.392 104.118L155.914 103.18L156.972 103.348L156.081 108.956C155.996 109.493 156.015 109.881 156.137 110.118C156.26 110.356 156.523 110.507 156.926 110.571C157.508 110.663 158.109 110.564 158.729 110.272L159.242 107.048L157.883 105.955L158.033 105.014L161.556 104.077L162.613 104.245L161.394 111.917L162.825 112.661L162.115 113.667ZM179.807 116.478L175.979 115.87L176.865 110.296C176.937 109.837 176.915 109.506 176.798 109.304C176.694 109.093 176.457 108.957 176.088 108.899C175.54 108.812 174.972 108.917 174.386 109.214L173.641 113.898L174.977 114.592L174.266 115.598L170.539 115.006L171.425 109.432C171.498 108.973 171.476 108.642 171.359 108.44C171.254 108.228 171.018 108.093 170.648 108.034C170.1 107.947 169.538 108.053 168.963 108.352L168.218 113.036L169.537 113.728L168.827 114.734L163.622 113.907L163.771 112.966L165.466 111.945L166.071 108.133L164.726 106.956L164.876 106.016L168.603 105.093L168.948 107.145L171.227 105.803C171.51 105.756 171.825 105.76 172.172 105.815C172.832 105.92 173.361 106.165 173.759 106.549C174.17 106.924 174.411 107.393 174.482 107.955L176.683 106.67C176.966 106.623 177.281 106.627 177.628 106.682C178.445 106.812 179.057 107.15 179.464 107.697C179.883 108.234 180.03 108.9 179.904 109.694L179.103 114.731L180.518 115.472L179.807 116.478ZM186.861 117.771C186.402 117.698 186.007 117.515 185.675 117.221L185.248 119.908L187.693 120.985L186.983 121.991L180.619 120.979L180.769 120.039L182.463 119.018L183.746 110.942L182.401 109.764L182.551 108.824L186.278 107.901L186.62 109.97L188.986 108.624C189.358 108.592 189.774 108.612 190.233 108.685C190.916 108.793 191.5 109.087 191.986 109.566C192.485 110.035 192.833 110.63 193.028 111.349C193.235 112.071 193.273 112.84 193.144 113.657C193.003 114.541 192.586 115.324 191.893 116.006C191.201 116.676 190.388 117.172 189.453 117.494C188.531 117.807 187.673 117.9 186.878 117.774L186.861 117.771ZM188.788 110.848C188.418 110.789 188.058 110.778 187.708 110.814C187.37 110.852 187.008 110.961 186.624 111.141L186.202 113.794C186.119 114.32 186.239 114.792 186.562 115.211C186.899 115.62 187.425 115.881 188.142 115.995C188.623 116.072 189.017 115.939 189.324 115.598C189.642 115.258 189.859 114.719 189.977 113.98C190.11 113.141 190.08 112.43 189.885 111.848C189.691 111.267 189.33 110.934 188.804 110.85L188.788 110.848ZM199.652 118.512L198.924 119.516L193.619 118.673L193.768 117.733L195.463 116.711L196.922 107.527L195.585 106.299L195.734 105.359L199.238 104.538L200.296 104.707L198.221 117.769L199.652 118.512ZM204.837 120.438L201.361 119.886L199.34 114.951L202.668 113.07L200.796 111.637L201.507 110.631L206.359 111.402L206.209 112.342L202.28 114.644L203.987 118.53L205.548 119.432L204.837 120.438ZM211.573 121.525L206.268 120.683L206.417 119.742L208.112 118.721L208.731 114.825L207.394 113.597L207.543 112.657L211.047 111.837L212.105 112.005L210.87 119.778L212.301 120.522L211.573 121.525ZM211.464 106.722C211.945 106.798 212.312 107.017 212.565 107.379C212.83 107.731 212.926 108.136 212.853 108.595C212.802 108.92 212.642 109.204 212.373 109.448C212.105 109.693 211.79 109.872 211.427 109.987C211.065 110.101 210.727 110.134 210.413 110.084C209.943 110.009 209.576 109.796 209.31 109.444C209.058 109.082 208.968 108.672 209.041 108.213C209.093 107.889 209.253 107.604 209.521 107.36C209.789 107.116 210.099 106.935 210.45 106.819C210.813 106.704 211.151 106.672 211.464 106.722ZM224.135 123.521L220.324 122.916L221.178 117.543C221.261 117.017 221.236 116.634 221.102 116.395C220.981 116.146 220.719 115.99 220.316 115.926C219.723 115.832 219.105 115.929 218.462 116.217L217.723 120.867L219.154 121.611L218.427 122.614L213.121 121.771L213.271 120.831L214.965 119.809L215.571 115.998L214.226 114.821L214.375 113.88L218.102 112.958L218.448 115.009L220.794 113.678C221.11 113.637 221.458 113.646 221.839 113.706C222.69 113.842 223.33 114.184 223.758 114.734C224.2 115.275 224.358 115.943 224.232 116.738L223.432 121.774L224.863 122.518L224.135 123.521Z" fill="black"/>
<defs>
<filter id="filter0_d_190_178" x="28.1362" y="32.1248" width="224.724" height="160.429" filterUnits="userSpaceOnUse" color-interpolation-filters="sRGB">
<feFlood flood-opacity="0" result="BackgroundImageFix"/>
<feColorMatrix in="SourceAlpha" type="matrix" values="0 0 0 0 0 0 0 0 0 0 0 0 0 0 0 0 0 0 127 0" result="hardAlpha"/>
<feOffset dy="4"/>
<feGaussianBlur stdDeviation="2"/>
<feComposite in2="hardAlpha" operator="out"/>
<feColorMatrix type="matrix" values="0 0 0 0 0 0 0 0 0 0 0 0 0 0 0 0 0 0 0.25 0"/>
<feBlend mode="normal" in2="BackgroundImageFix" result="effect1_dropShadow_190_178"/>
<feBlend mode="normal" in="SourceGraphic" in2="effect1_dropShadow_190_178" result="shape"/>
</filter>
</defs>
</svg>
